<svg xmlns="http://www.w3.org/2000/svg" height="512pt" version="1.1" viewBox="0 -18 512.00002 512" width="512pt">
<g id="surface1">
<path d="M 494.34375 220.683594 L 17.65625 220.683594 C 7.933594 220.753906 0.0703125 228.617188 0 238.339844 C 0.03125 248.078125 7.917969 255.964844 17.65625 255.992188 L 494.34375 255.992188 C 504.066406 255.921875 511.929688 248.058594 512 238.339844 C 511.96875 228.597656 504.082031 220.710938 494.34375 220.683594 Z M 494.34375 220.683594 " style=" stroke:none;fill-rule:nonzero;fill:rgb(0%,40.784314%,21.960784%);fill-opacity:1;" />
<path d="M 76.648438 17.648438 C 63.570312 17.648438 52.964844 28.25 52.964844 41.332031 L 52.964844 70.613281 L 105.929688 70.613281 L 105.929688 41.332031 C 105.929688 28.25 95.328125 17.648438 82.246094 17.648438 Z M 76.648438 17.648438 " style=" stroke:none;fill-rule:nonzero;fill:rgb(100%,85.490196%,26.666667%);fill-opacity:1;" />
<path d="M 52.964844 99.894531 C 52.964844 112.976562 63.570312 123.578125 76.648438 123.578125 L 82.246094 123.578125 C 95.328125 123.578125 105.933594 112.976562 105.933594 99.894531 L 105.933594 70.613281 L 52.964844 70.613281 Z M 52.964844 99.894531 " style=" stroke:none;fill-rule:nonzero;fill:rgb(100%,80.392157%,0%);fill-opacity:1;" />
<path d="M 178.070312 10.339844 C 164.285156 24.128906 164.285156 46.480469 178.070312 60.265625 L 228 10.339844 C 214.210938 -3.445312 191.859375 -3.445312 178.070312 10.339844 Z M 178.070312 10.339844 " style=" stroke:none;fill-rule:nonzero;fill:rgb(100%,46.666667%,32.941176%);fill-opacity:1;" />
<path d="M 228 10.339844 L 178.070312 60.265625 C 192.097656 73.816406 214.453125 73.425781 228 59.398438 C 241.214844 45.714844 241.214844 24.023438 228 10.339844 Z M 228 10.339844 " style=" stroke:none;fill-rule:nonzero;fill:rgb(100%,52.156863%,42.745098%);fill-opacity:1;" />
<path d="M 176.550781 105.925781 C 157.050781 105.925781 141.242188 121.734375 141.242188 141.234375 L 211.863281 141.234375 C 211.863281 121.734375 196.054688 105.925781 176.550781 105.925781 Z M 176.550781 105.925781 " style=" stroke:none;fill-rule:nonzero;fill:rgb(47.058824%,72.54902%,92.156863%);fill-opacity:1;" />
<path d="M 176.550781 176.542969 C 196.054688 176.542969 211.863281 160.734375 211.863281 141.234375 L 141.242188 141.234375 C 141.242188 160.734375 157.050781 176.542969 176.550781 176.542969 Z M 176.550781 176.542969 " style=" stroke:none;fill-rule:nonzero;fill:rgb(35.294118%,66.666667%,90.588235%);fill-opacity:1;" />
<path d="M 256 255.992188 L 256 476.683594 C 372.996094 476.652344 467.832031 381.816406 467.863281 264.820312 L 467.863281 255.992188 Z M 256 255.992188 " style=" stroke:none;fill-rule:nonzero;fill:rgb(51.372549%,81.176471%,59.215686%);fill-opacity:1;" />
<path d="M 247.171875 353.097656 L 256 353.097656 L 256 255.992188 L 44.136719 255.992188 L 44.136719 264.820312 C 44.167969 381.816406 139.003906 476.652344 256 476.683594 L 256 353.097656 Z M 247.171875 353.097656 " style=" stroke:none;fill-rule:nonzero;fill:rgb(39.215686%,76.470588%,49.019608%);fill-opacity:1;" />
<path d="M 416.132812 84.296875 L 261.472656 220.683594 L 326.621094 220.683594 L 463.695312 83.609375 C 450.042969 71.523438 429.429688 71.820312 416.132812 84.296875 Z M 416.132812 84.296875 " style=" stroke:none;fill-rule:nonzero;fill:rgb(100%,85.490196%,26.666667%);fill-opacity:1;" />
<path d="M 465.390625 85.003906 C 464.859375 84.472656 464.242188 84.121094 463.695312 83.609375 L 326.621094 220.683594 L 392.5625 220.683594 L 467.507812 135.671875 C 480.640625 121.800781 480.328125 99.992188 466.804688 86.503906 Z M 465.390625 85.003906 " style=" stroke:none;fill-rule:nonzero;fill:rgb(100%,80.392157%,0%);fill-opacity:1;" />
<path d="M 264.828125 361.925781 L 247.171875 361.925781 C 242.296875 361.925781 238.34375 357.972656 238.34375 353.097656 C 238.34375 348.222656 242.296875 344.269531 247.171875 344.269531 L 264.828125 344.269531 C 269.703125 344.269531 273.65625 348.222656 273.65625 353.097656 C 273.65625 357.972656 269.703125 361.925781 264.828125 361.925781 Z M 264.828125 361.925781 " style=" stroke:none;fill-rule:nonzero;fill:rgb(94.509804%,94.901961%,94.901961%);fill-opacity:1;" />
<path d="M 211.863281 361.925781 L 194.207031 361.925781 C 189.332031 361.925781 185.378906 357.972656 185.378906 353.097656 C 185.378906 348.222656 189.332031 344.269531 194.207031 344.269531 L 211.863281 344.269531 C 216.738281 344.269531 220.691406 348.222656 220.691406 353.097656 C 220.691406 357.972656 216.738281 361.925781 211.863281 361.925781 Z M 211.863281 361.925781 " style=" stroke:none;fill-rule:nonzero;fill:rgb(94.509804%,94.901961%,94.901961%);fill-opacity:1;" />
<path d="M 317.792969 361.925781 L 300.136719 361.925781 C 295.261719 361.925781 291.308594 357.972656 291.308594 353.097656 C 291.308594 348.222656 295.261719 344.269531 300.136719 344.269531 L 317.792969 344.269531 C 322.667969 344.269531 326.621094 348.222656 326.621094 353.097656 C 326.621094 357.972656 322.667969 361.925781 317.792969 361.925781 Z M 317.792969 361.925781 " style=" stroke:none;fill-rule:nonzero;fill:rgb(94.509804%,94.901961%,94.901961%);fill-opacity:1;" />
</g>
</svg>